<?xml version="1.0" encoding="utf-8"?>
<!-- Generator: Adobe Illustrator 17.1.0, SVG Export Plug-In . SVG Version: 6.00 Build 0)  -->
<!DOCTYPE svg PUBLIC "-//W3C//DTD SVG 1.1//EN" "http://www.w3.org/Graphics/SVG/1.1/DTD/svg11.dtd">
<svg version="1.1" id="Layer_1" xmlns="http://www.w3.org/2000/svg" xmlns:xlink="http://www.w3.org/1999/xlink" x="0px" y="0px"
	 viewBox="0 0 40 40" enable-background="new 0 0 40 40" xml:space="preserve">
<g id="Activity">
	<path fill="#FFFFFF" d="M20,0c-0.026,0-0.052,0-0.078,0C8.913,0,0,8.981,0,20c0,11.046,8.954,20,20,20s19.965-8.954,20-20
		C40.035,8.973,31.125,0,20,0z M19.922,2h0.07C29.953,2.039,38.031,10.11,38,19.994c-0.007,2.077-0.383,4.064-1.036,5.922
		c-0.631-1.225-1.38-4.099-1.826-5.823c-1.213-4.67-2.031-7.532-3.505-7.532c-1.577,0-2.351,2.804-3.483,7.378
		c-0.603,2.436-1.61,6.511-2.446,6.511c-0.819,0-1.966-4.563-2.581-7.016c-1.124-4.479-1.823-7.012-3.124-7.012
		c-1.298,0-2.012,2.522-3.161,6.979c-0.63,2.443-1.802,6.989-2.625,6.989c-0.835,0-1.843-4.074-2.445-6.509
		C10.635,15.305,9.862,12.5,8.284,12.5c-1.474,0-2.291,2.862-3.504,7.531c-0.441,1.7-1.174,4.52-1.799,5.773
		C2.355,23.981,2,22.033,2,20C2,10.075,10.04,2,19.922,2z M20,38c-7.464,0-13.88-4.568-16.603-11.055
		c0.83-0.954,1.465-3.256,2.35-6.661c0.615-2.371,1.761-6.783,2.535-6.783c0.875,0,1.9,4.145,2.514,6.621
		c1.115,4.507,1.877,7.269,3.416,7.269c1.521,0,2.356-2.94,3.594-7.739c0.582-2.259,1.558-6.041,2.18-6.23
		c0.646,0.196,1.598,3.99,2.167,6.256c1.21,4.819,2.028,7.772,3.551,7.772c1.54,0,2.302-2.763,3.417-7.271
		c0.613-2.475,1.639-6.618,2.513-6.618c0.775,0,1.921,4.413,2.537,6.783c0.894,3.443,1.533,5.758,2.377,6.692
		C33.789,33.474,27.405,38,20,38z"/>
</g>
</svg>
