<?xml version="1.0" encoding="utf-8"?>
<!-- Generator: Adobe Illustrator 17.1.0, SVG Export Plug-In . SVG Version: 6.00 Build 0)  -->
<!DOCTYPE svg PUBLIC "-//W3C//DTD SVG 1.1//EN" "http://www.w3.org/Graphics/SVG/1.1/DTD/svg11.dtd">
<svg version="1.1" id="Layer_1" xmlns="http://www.w3.org/2000/svg" xmlns:xlink="http://www.w3.org/1999/xlink" x="0px" y="0px"
	 viewBox="0 0 40 40" enable-background="new 0 0 40 40" xml:space="preserve">
<path id="Activity" fill="none" d="M20,0C8.954,0,0,8.954,0,20s8.954,20,20,20s20-8.954,20-20S31.046,0,20,0z M20,4
	c8.822,0,16,7.178,16,16c0,0.346-0.03,0.684-0.052,1.024c-0.122-0.39-0.238-0.768-0.34-1.1c-1.158-3.804-2.074-6.808-3.976-6.808
	c-2.016,0-2.874,2.952-3.958,6.686c-0.526,1.81-1.406,4.844-1.864,5.174c-0.674-0.374-1.638-3.646-2.214-5.604
	C22.466,15.536,21.72,13,19.998,13c-1.714,0-2.478,2.524-3.634,6.34c-0.59,1.954-1.578,5.22-2.074,5.58
	c-0.642-0.322-1.524-3.356-2.048-5.166c-1.086-3.734-1.944-6.686-3.96-6.686c-1.902,0-2.818,3.004-3.976,6.808
	c-0.082,0.266-0.172,0.564-0.268,0.872C4.026,20.5,4,20.252,4,20C4,11.178,11.178,4,20,4z M20,36
	c-7.16,0-13.236-4.728-15.272-11.226c0.51-1.124,0.968-2.6,1.49-4.314c0.576-1.888,1.538-5.046,2.002-5.404
	c0.664,0.31,1.598,3.528,2.1,5.254c1.07,3.686,1.914,6.596,3.892,6.596c1.952,0,2.884-3.084,4.064-6.986
	c0.484-1.6,1.186-3.916,1.718-4.726c0.526,0.814,1.21,3.14,1.684,4.744c1.154,3.922,2.066,7.018,4.024,7.018
	c1.978,0,2.822-2.91,3.892-6.596c0.502-1.726,1.436-4.944,1.916-5.268c0.646,0.372,1.61,3.53,2.184,5.416
	c0.534,1.756,1.002,3.266,1.528,4.398C33.146,31.334,27.11,36,20,36z"/>
</svg>
