<?xml version="1.0" encoding="utf-8"?>
<!-- Generator: Adobe Illustrator 17.1.0, SVG Export Plug-In . SVG Version: 6.00 Build 0)  -->
<!DOCTYPE svg PUBLIC "-//W3C//DTD SVG 1.1//EN" "http://www.w3.org/Graphics/SVG/1.1/DTD/svg11.dtd">
<svg version="1.1" id="Layer_1" xmlns="http://www.w3.org/2000/svg" xmlns:xlink="http://www.w3.org/1999/xlink" x="0px" y="0px"
	 viewBox="0 0 40 40" enable-background="new 0 0 40 40" xml:space="preserve">
<path id="Add" fill="none" d="M20,27.063c-0.276,0-0.5-0.224-0.5-0.5V13.478c0-0.276,0.224-0.5,0.5-0.5s0.5,0.224,0.5,0.5v13.085
	C20.5,26.84,20.276,27.063,20,27.063z M26.542,20.5H13.458c-0.276,0-0.5-0.224-0.5-0.5s0.224-0.5,0.5-0.5h13.084
	c0.276,0,0.5,0.224,0.5,0.5S26.818,20.5,26.542,20.5z M19.922,2L19.922,2h0.07C29.953,2.039,38.031,10.11,38,19.994
	C37.969,29.922,29.894,38,20,38c-9.925,0-18-8.075-18-18S10.04,2,19.922,2 M19.922,0C8.913,0,0,8.981,0,20c0,11.046,8.954,20,20,20
	s19.965-8.954,20-20C40.035,8.973,31.125,0.043,20,0C19.974,0,19.948,0,19.922,0L19.922,0z"/>
</svg>
