<?xml version="1.0" encoding="utf-8"?>
<!-- Generator: Adobe Illustrator 17.1.0, SVG Export Plug-In . SVG Version: 6.00 Build 0)  -->
<!DOCTYPE svg PUBLIC "-//W3C//DTD SVG 1.1//EN" "http://www.w3.org/Graphics/SVG/1.1/DTD/svg11.dtd">
<svg version="1.1" id="Layer_1" xmlns="http://www.w3.org/2000/svg" xmlns:xlink="http://www.w3.org/1999/xlink" x="0px" y="0px"
	 viewBox="0 0 40 40" enable-background="new 0 0 40 40" xml:space="preserve">
<path id="Add" fill="none" d="M20,28c-0.552,0-1-0.448-1-1V13c0-0.552,0.448-1,1-1s1,0.448,1,1v14C21,27.552,20.552,28,20,28z
	 M27,21H13c-0.552,0-1-0.448-1-1s0.448-1,1-1h14c0.552,0,1,0.448,1,1S27.552,21,27,21z M20,4c8.822,0,16,7.178,16,16
	s-7.178,16-16,16S4,28.822,4,20S11.178,4,20,4 M20,0C8.954,0,0,8.954,0,20s8.954,20,20,20s20-8.954,20-20S31.046,0,20,0L20,0z"/>
</svg>
