<?xml version="1.0" encoding="utf-8"?>
<!-- Generator: Adobe Illustrator 17.1.0, SVG Export Plug-In . SVG Version: 6.00 Build 0)  -->
<!DOCTYPE svg PUBLIC "-//W3C//DTD SVG 1.1//EN" "http://www.w3.org/Graphics/SVG/1.1/DTD/svg11.dtd">
<svg version="1.1" id="Layer_1" xmlns="http://www.w3.org/2000/svg" xmlns:xlink="http://www.w3.org/1999/xlink" x="0px" y="0px"
	 viewBox="0 0 40 40" enable-background="new 0 0 40 40" xml:space="preserve">
<path id="Compose" fill="none" d="M39.707,6.293l-6-6c-0.391-0.391-1.023-0.391-1.414,0l-17,17C15.105,17.48,15,17.734,15,18v6
	c0,0.553,0.447,1,1,1h6c0.266,0,0.52-0.105,0.707-0.293l17-17C40.098,7.316,40.098,6.684,39.707,6.293z M17,19.414L20.586,23H17
	V19.414z M22.5,22.086L17.914,17.5L33,2.414L37.586,7L22.5,22.086z M29.746,23.564c-0.155-0.088-0.348-0.087-0.503,0.007
	l-14.72,8.831L1,22.743V20h11c0.276,0,0.5-0.224,0.5-0.5S12.276,19,12,19H0.5C0.224,19,0,19.224,0,19.5v3.493
	c0,0.004,0,0.009,0,0.013V39.5C0,39.776,0.224,40,0.5,40h29c0.276,0,0.5-0.224,0.5-0.5V24C30,23.82,29.903,23.653,29.746,23.564z
	 M29,39H1V23.972l13.209,9.436c0.163,0.115,0.379,0.125,0.548,0.021L29,24.883V39z"/>
</svg>
