<?xml version="1.0" encoding="utf-8"?>
<!-- Generator: Adobe Illustrator 17.1.0, SVG Export Plug-In . SVG Version: 6.00 Build 0)  -->
<!DOCTYPE svg PUBLIC "-//W3C//DTD SVG 1.1//EN" "http://www.w3.org/Graphics/SVG/1.1/DTD/svg11.dtd">
<svg version="1.1" id="Layer_1" xmlns="http://www.w3.org/2000/svg" xmlns:xlink="http://www.w3.org/1999/xlink" x="0px" y="0px"
	 viewBox="0 0 40 40" enable-background="new 0 0 40 40" xml:space="preserve">
<path id="Compose" fill="none" d="M39.414,6.586l-6-6c-0.782-0.782-2.046-0.782-2.828,0l-16,16C14.21,16.96,14,17.468,14,18v6
	c0,1.106,0.894,2,2,2h6c0.532,0,1.04-0.21,1.414-0.586l16-16C40.196,8.632,40.196,7.368,39.414,6.586z M23,20.172L19.828,17
	L32,4.828L35.172,8L23,20.172z M28.528,24.12L15,31.366L2,24.4V20h8c0.552,0,1-0.448,1-1s-0.448-1-1-1H1c-0.552,0-1,0.448-1,1v5.98
	c0,0.012,0,0.026,0,0.04V39c0,0.552,0.448,1,1,1h28c0.552,0,1-0.448,1-1V25c0-0.352-0.186-0.678-0.486-0.858
	C29.21,23.96,28.838,23.952,28.528,24.12z M28,38H2V26.67l12.528,6.71c0.296,0.16,0.648,0.16,0.946,0L28,26.67V38z"/>
</svg>
