<?xml version="1.0" encoding="utf-8"?>
<!-- Generator: Adobe Illustrator 17.1.0, SVG Export Plug-In . SVG Version: 6.00 Build 0)  -->
<!DOCTYPE svg PUBLIC "-//W3C//DTD SVG 1.1//EN" "http://www.w3.org/Graphics/SVG/1.1/DTD/svg11.dtd">
<svg version="1.1" id="Layer_1" xmlns="http://www.w3.org/2000/svg" xmlns:xlink="http://www.w3.org/1999/xlink" x="0px" y="0px"
	 viewBox="0 0 40 40" enable-background="new 0 0 40 40" xml:space="preserve">
<path id="Download" fill="none" d="M18.584,27.412c0.002,0.002,0.004,0.004,0.006,0.006l1.41,1.41l1.412-1.412
	c0.002-0.002,0.004-0.004,0.006-0.006l12.018-12.018c0.782-0.782,0.782-2.046,0-2.828s-2.046-0.782-2.828,0L22,21.172V2
	c0-1.106-0.894-2-2-2s-2,0.894-2,2v19.172l-8.608-8.608c-0.782-0.782-2.046-0.782-2.828,0s-0.782,2.046,0,2.828L18.584,27.412z
	 M38,28v10H2V28H0v11c0,0.552,0.448,1,1,1h38c0.552,0,1-0.448,1-1V28H38z"/>
</svg>
