<?xml version="1.0" encoding="utf-8"?>
<!-- Generator: Adobe Illustrator 17.1.0, SVG Export Plug-In . SVG Version: 6.00 Build 0)  -->
<!DOCTYPE svg PUBLIC "-//W3C//DTD SVG 1.1//EN" "http://www.w3.org/Graphics/SVG/1.1/DTD/svg11.dtd">
<svg version="1.1" id="Layer_1" xmlns="http://www.w3.org/2000/svg" xmlns:xlink="http://www.w3.org/1999/xlink" x="0px" y="0px"
	 viewBox="0 0 40 40" enable-background="new 0 0 40 40" xml:space="preserve">
<path id="Download" fill="none" d="M19.292,26.706c0.001,0.001,0.002,0.002,0.003,0.003L20,27.414l0.706-0.706
	c0.001-0.001,0.002-0.002,0.003-0.003l12.019-12.019c0.391-0.391,0.391-1.023,0-1.414s-1.023-0.391-1.414,0L21,23.586V1
	c0-0.553-0.447-1-1-1s-1,0.447-1,1v22.586L8.687,13.272c-0.391-0.391-1.023-0.391-1.414,0s-0.391,1.023,0,1.414L19.292,26.706z
	 M39,28v11H1V28H0v11.5C0,39.776,0.224,40,0.5,40h39c0.276,0,0.5-0.224,0.5-0.5V28H39z"/>
</svg>
