<?xml version="1.0" encoding="utf-8"?>
<!-- Generator: Adobe Illustrator 17.1.0, SVG Export Plug-In . SVG Version: 6.00 Build 0)  -->
<!DOCTYPE svg PUBLIC "-//W3C//DTD SVG 1.1//EN" "http://www.w3.org/Graphics/SVG/1.1/DTD/svg11.dtd">
<svg version="1.1" id="Layer_1" xmlns="http://www.w3.org/2000/svg" xmlns:xlink="http://www.w3.org/1999/xlink" x="0px" y="0px"
	 viewBox="0 0 40 40" enable-background="new 0 0 40 40" xml:space="preserve">
<g id="Like">
	<g>
		<g>
			<path fill="#FFFFFF" d="M20.048,39.062L2.853,19.945C1.141,17.524,0,15.299,0,12.307C0,6.038,4.899,0.938,10.92,0.938
				c3.681,0.015,7.065,1.902,9.083,4.934c2.018-3.046,5.382-4.934,8.999-4.934C35.104,0.963,40.019,6.064,40,12.31
				c-0.008,2.544-0.822,4.859-2.563,7.289l-0.067,0.084L20.048,39.062z M4.453,18.743l15.591,17.322L35.842,18.39
				c1.466-2.059,2.152-3.994,2.158-6.087c0.016-5.144-4.005-9.345-8.964-9.365c-3.48,0-6.654,2.123-8.118,5.41l-0.914,2.051
				l-0.913-2.051c-1.457-3.272-4.65-5.396-8.135-5.41C6.001,2.938,2,7.141,2,12.307C2,14.761,2.937,16.594,4.453,18.743z"/>
		</g>
	</g>
</g>
</svg>
