<?xml version="1.0" encoding="utf-8"?>
<!-- Generator: Adobe Illustrator 17.1.0, SVG Export Plug-In . SVG Version: 6.00 Build 0)  -->
<!DOCTYPE svg PUBLIC "-//W3C//DTD SVG 1.1//EN" "http://www.w3.org/Graphics/SVG/1.1/DTD/svg11.dtd">
<svg version="1.1" id="Layer_1" xmlns="http://www.w3.org/2000/svg" xmlns:xlink="http://www.w3.org/1999/xlink" x="0px" y="0px"
	 viewBox="0 0 40 40" enable-background="new 0 0 40 40" xml:space="preserve">
<g id="Like">
	<g>
		<g>
			<path fill="#FFFFFF" d="M20.048,39.008L2.892,19.784C1.39,17.642,0,15.208,0,11.896C0,5.336,5.114,0,11.398,0
				C14.75,0.014,17.864,1.52,20,4.01C22.134,1.506,25.23,0,28.528,0C34.894,0.026,40.02,5.366,40,11.902
				c-0.008,2.654-0.842,5.054-2.622,7.556l-0.134,0.168L20.048,39.008z M6.1,17.39l13.938,15.602l14.14-15.938
				c1.252-1.786,1.814-3.382,1.82-5.164c0.016-4.334-3.324-7.872-7.442-7.89c-2.876,0-5.504,1.782-6.724,4.538L20,12.674
				l-1.826-4.136C16.962,5.792,14.314,4.012,11.428,4C7.318,4,4,7.542,4,11.896C4,13.946,4.802,15.528,6.1,17.39z"/>
		</g>
	</g>
</g>
</svg>
