<?xml version="1.0" encoding="utf-8"?>
<!-- Generator: Adobe Illustrator 17.1.0, SVG Export Plug-In . SVG Version: 6.00 Build 0)  -->
<!DOCTYPE svg PUBLIC "-//W3C//DTD SVG 1.1//EN" "http://www.w3.org/Graphics/SVG/1.1/DTD/svg11.dtd">
<svg version="1.1" id="Layer_1" xmlns="http://www.w3.org/2000/svg" xmlns:xlink="http://www.w3.org/1999/xlink" x="0px" y="0px"
	 viewBox="0 0 40 40" enable-background="new 0 0 40 40" xml:space="preserve">
<path id="Mixtape" fill="none" d="M29,21c-2.206,0-4,1.794-4,4s1.794,4,4,4s4-1.794,4-4S31.206,21,29,21z M29,27
	c-1.104,0-2-0.896-2-2s0.896-2,2-2s2,0.896,2,2S30.104,27,29,27z M7,25c0,2.206,1.794,4,4,4s4-1.794,4-4s-1.794-4-4-4S7,22.794,7,25
	z M13,25c0,1.104-0.896,2-2,2s-2-0.896-2-2s0.896-2,2-2S13,23.896,13,25z M24,23c0-0.552-0.448-1-1-1h-6c-0.552,0-1,0.448-1,1v4
	c0,0.552,0.448,1,1,1h6c0.552,0,1-0.448,1-1V23z M22,25.92h-4v-1.84h4V25.92z M27,8h5v5c0,0.552,0.448,1,1,1s1-0.448,1-1V8h5
	c0.552,0,1-0.448,1-1s-0.448-1-1-1h-5V1c0-0.552-0.448-1-1-1s-1,0.448-1,1v5h-5c-0.552,0-1,0.448-1,1S26.448,8,27,8z M38,13.92
	c-1.106,0-2,0.894-2,2V36h-0.928l-2.902-3.624C31.98,32.138,31.692,32,31.388,32H8.612C8.31,32,8.02,32.138,7.83,32.376L4.928,36H4
	V16h21.684c1.106,0,2-0.894,2-2s-0.894-2-2-2H2c-1.106,0-2,0.894-2,2v24c0,1.106,0.894,2,2,2h36c1.106,0,2-0.894,2-2V15.92
	C40,14.814,39.106,13.92,38,13.92z M9.092,34h21.816l1.602,2H7.49L9.092,34z"/>
</svg>
