<?xml version="1.0" encoding="utf-8"?>
<!-- Generator: Adobe Illustrator 17.1.0, SVG Export Plug-In . SVG Version: 6.00 Build 0)  -->
<!DOCTYPE svg PUBLIC "-//W3C//DTD SVG 1.1//EN" "http://www.w3.org/Graphics/SVG/1.1/DTD/svg11.dtd">
<svg version="1.1" id="Layer_1" xmlns="http://www.w3.org/2000/svg" xmlns:xlink="http://www.w3.org/1999/xlink" x="0px" y="0px"
	 viewBox="0 0 40 40" enable-background="new 0 0 40 40" xml:space="preserve">
<path id="Mixtape" fill="none" d="M27,25.5c0,2.206,1.794,4,4,4s4-1.794,4-4s-1.794-4-4-4S27,23.294,27,25.5z M34,25.5
	c0,1.654-1.346,3-3,3s-3-1.346-3-3s1.346-3,3-3S34,23.846,34,25.5z M5,25.5c0,2.206,1.794,4,4,4s4-1.794,4-4s-1.794-4-4-4
	S5,23.294,5,25.5z M12,25.5c0,1.654-1.346,3-3,3s-3-1.346-3-3s1.346-3,3-3S12,23.846,12,25.5z M16.5,23c-0.276,0-0.5,0.224-0.5,0.5
	v4c0,0.276,0.224,0.5,0.5,0.5h7c0.276,0,0.5-0.224,0.5-0.5v-4c0-0.276-0.224-0.5-0.5-0.5H16.5z M23,27h-6v-3h6V27z M26,8h6v6
	c0,0.276,0.224,0.5,0.5,0.5S33,14.276,33,14V8h6c0.276,0,0.5-0.224,0.5-0.5S39.276,7,39,7h-6V1c0-0.276-0.224-0.5-0.5-0.5
	S32,0.724,32,1v6h-6c-0.276,0-0.5,0.224-0.5,0.5S25.724,8,26,8z M39,15c-0.553,0-1,0.447-1,1v22h-2.519l-3.072-3.801
	C32.313,34.083,32.171,34,32.021,34H7.979c-0.15,0-0.293,0.083-0.389,0.199L4.519,38H2V15h24c0.553,0,1-0.447,1-1s-0.447-1-1-1H1
	c-0.553,0-1,0.447-1,1v25c0,0.553,0.447,1,1,1h38c0.553,0,1-0.447,1-1V16C40,15.447,39.553,15,39,15z M8.218,35h23.564l2.41,3H5.808
	L8.218,35z"/>
</svg>
