<?xml version="1.0" encoding="utf-8"?>
<!-- Generator: Adobe Illustrator 17.1.0, SVG Export Plug-In . SVG Version: 6.00 Build 0)  -->
<!DOCTYPE svg PUBLIC "-//W3C//DTD SVG 1.1//EN" "http://www.w3.org/Graphics/SVG/1.1/DTD/svg11.dtd">
<svg version="1.1" id="Layer_1" xmlns="http://www.w3.org/2000/svg" xmlns:xlink="http://www.w3.org/1999/xlink" x="0px" y="0px"
	 viewBox="0 0 40 40" enable-background="new 0 0 40 40" xml:space="preserve">
<g id="Next">
	<path fill="#FFFFFF" d="M5.086,8.222C5.748,7.88,6.55,7.934,7.162,8.374L18,16.116V10c0-0.748,0.418-1.436,1.084-1.778
		c0.664-0.342,1.466-0.29,2.078,0.15l14,10C35.688,18.748,36,19.354,36,20s-0.312,1.252-0.836,1.626l-13.994,10
		C20.824,31.876,20.416,32,20.006,32c-0.312,0-0.628-0.072-0.918-0.22C18.422,31.436,18,30.75,18,30v-6.116L7.166,31.626
		C6.822,31.876,6.414,32,6.004,32c-0.312,0-0.626-0.072-0.914-0.22C4.424,31.436,4.006,30.75,4.006,30L4,10
		C4,9.252,4.418,8.564,5.086,8.222z M22,26l8.56-6L22,14V26z M8,26l8.56-6L8,14V26z"/>
</g>
</svg>
