<?xml version="1.0" encoding="utf-8"?>
<!-- Generator: Adobe Illustrator 17.1.0, SVG Export Plug-In . SVG Version: 6.00 Build 0)  -->
<!DOCTYPE svg PUBLIC "-//W3C//DTD SVG 1.1//EN" "http://www.w3.org/Graphics/SVG/1.1/DTD/svg11.dtd">
<svg version="1.1" id="Layer_1" xmlns="http://www.w3.org/2000/svg" xmlns:xlink="http://www.w3.org/1999/xlink" x="0px" y="0px"
	 viewBox="0 0 40 40" enable-background="new 0 0 40 40" xml:space="preserve">
<g id="Next">
	<path fill="#FFFFFF" d="M4.53,9.117C4.856,8.944,5.251,8.963,5.558,9.17L19,18.287V10c0-0.369,0.325-0.709,0.651-0.883
		c0.326-0.173,0.721-0.154,1.028,0.053l14.879,10C35.834,19.356,36,19.667,36,20s-0.166,0.645-0.442,0.83l-14.873,10
		C20.517,30.942,20.322,31,20.127,31c-0.161,0-0.323-0.039-0.47-0.117C19.331,30.709,19,30.37,19,30v-8.287L5.564,30.83
		C5.396,30.942,5.201,31,5.006,31c-0.161,0-0.323-0.039-0.47-0.117C4.21,30.709,4.006,30.37,4.006,30L4,10
		C4,9.631,4.204,9.291,4.53,9.117z M21,28l12-8l-12-8V28z M6,28l12-8L6,12V28z"/>
</g>
</svg>
