<?xml version="1.0" encoding="utf-8"?>
<!-- Generator: Adobe Illustrator 17.1.0, SVG Export Plug-In . SVG Version: 6.00 Build 0)  -->
<!DOCTYPE svg PUBLIC "-//W3C//DTD SVG 1.1//EN" "http://www.w3.org/Graphics/SVG/1.1/DTD/svg11.dtd">
<svg version="1.1" id="Layer_1" xmlns="http://www.w3.org/2000/svg" xmlns:xlink="http://www.w3.org/1999/xlink" x="0px" y="0px"
	 viewBox="0 0 40 40" enable-background="new 0 0 40 40" xml:space="preserve">
<path id="Pause" fill="none" d="M15,28.022c-0.552,0-1-0.448-1-1v-14c0-0.552,0.448-1,1-1s1,0.446,1,1v14
	C16,27.574,15.552,28.022,15,28.022z M25,28.022c-0.552,0-1-0.448-1-1v-14c0-0.552,0.448-1,1-1s1,0.448,1,1v14
	C26,27.574,25.552,28.022,25,28.022z M20,0C8.954,0,0,8.954,0,20s8.954,20,20,20s20-8.954,20-20S31.046,0,20,0z M20,36
	c-8.822,0-16-7.178-16-16S11.178,4,20,4s16,7.178,16,16S28.822,36,20,36z"/>
</svg>
