<?xml version="1.0" encoding="utf-8"?>
<!-- Generator: Adobe Illustrator 17.1.0, SVG Export Plug-In . SVG Version: 6.00 Build 0)  -->
<!DOCTYPE svg PUBLIC "-//W3C//DTD SVG 1.1//EN" "http://www.w3.org/Graphics/SVG/1.1/DTD/svg11.dtd">
<svg version="1.1" id="Layer_1" xmlns="http://www.w3.org/2000/svg" xmlns:xlink="http://www.w3.org/1999/xlink" x="0px" y="0px"
	 viewBox="0 0 40 40" enable-background="new 0 0 40 40" xml:space="preserve">
<path id="Pause" fill="none" d="M15.5,12.978c-0.276,0-0.5,0.224-0.5,0.5v13.085c0,0.276,0.224,0.5,0.5,0.5s0.5-0.224,0.5-0.5
	V13.478C16,13.202,15.776,12.978,15.5,12.978z M24.5,12.978c-0.276,0-0.5,0.224-0.5,0.5v13.085c0,0.276,0.224,0.5,0.5,0.5
	s0.5-0.224,0.5-0.5V13.478C25,13.202,24.776,12.978,24.5,12.978z M20,0c-0.026,0-0.052,0-0.078,0C8.913,0,0,8.981,0,20
	c0,11.046,8.954,20,20,20s19.965-8.954,20-20C40.035,8.973,31.125,0,20,0z M20,38c-9.925,0-18-8.075-18-18S10.04,2,19.922,2h0.07
	C29.953,2,38.031,10.11,38,19.994C37.969,29.922,29.894,38,20,38z"/>
</svg>
