<?xml version="1.0" encoding="utf-8"?>
<!-- Generator: Adobe Illustrator 17.1.0, SVG Export Plug-In . SVG Version: 6.00 Build 0)  -->
<!DOCTYPE svg PUBLIC "-//W3C//DTD SVG 1.1//EN" "http://www.w3.org/Graphics/SVG/1.1/DTD/svg11.dtd">
<svg version="1.1" id="Layer_1" xmlns="http://www.w3.org/2000/svg" xmlns:xlink="http://www.w3.org/1999/xlink" x="0px" y="0px"
	 viewBox="0 0 40 40" enable-background="new 0 0 40 40" xml:space="preserve">
<path fill="none" d="M15.667,13.145c-0.184,0-0.333,0.149-0.333,0.333v13.085c0,0.184,0.149,0.333,0.333,0.333S16,26.747,16,26.563
	V13.479C16,13.294,15.851,13.145,15.667,13.145z M24.333,13.145c-0.184,0-0.333,0.149-0.333,0.333v13.085
	c0,0.184,0.149,0.333,0.333,0.333s0.333-0.149,0.333-0.333V13.479C24.667,13.294,24.517,13.145,24.333,13.145z M20,0
	c-0.026,0-0.052,0-0.078,0C8.913,0,0,8.981,0,20c0,11.045,8.954,20,20,20s19.965-8.955,20-20C40.035,8.973,31.125,0,20,0z
	 M20,38.667C9.707,38.667,1.333,30.293,1.333,20S9.672,1.333,19.922,1.333h0.073c10.328,0.04,18.704,8.412,18.672,18.663
	C38.634,30.291,30.26,38.667,20,38.667z"/>
</svg>
