<?xml version="1.0" encoding="utf-8"?>
<!-- Generator: Adobe Illustrator 17.1.0, SVG Export Plug-In . SVG Version: 6.00 Build 0)  -->
<!DOCTYPE svg PUBLIC "-//W3C//DTD SVG 1.1//EN" "http://www.w3.org/Graphics/SVG/1.1/DTD/svg11.dtd">
<svg version="1.1" id="Layer_1" xmlns="http://www.w3.org/2000/svg" xmlns:xlink="http://www.w3.org/1999/xlink" x="0px" y="0px"
	 viewBox="0 0 40 40" enable-background="new 0 0 40 40" xml:space="preserve">
<path id="Play" fill="none" d="M15.762,12.868c-0.154-0.097-0.347-0.098-0.506-0.011C15.098,12.946,15,13.113,15,13.294v13.412
	c0,0.181,0.098,0.348,0.256,0.437c0.076,0.042,0.16,0.063,0.244,0.063c0.091,0,0.182-0.024,0.262-0.074l10.927-6.706
	c0.148-0.091,0.238-0.252,0.238-0.426s-0.09-0.335-0.238-0.426L15.762,12.868z M16,25.812V14.187L25.471,20L16,25.812z M20,0
	c-0.026,0-0.052,0-0.078,0C8.913,0,0,8.981,0,20c0,11.046,8.954,20,20,20s19.965-8.954,20-20C40.035,8.973,31.125,0,20,0z M20,38
	c-9.925,0-18-8.075-18-18S10.04,2,19.922,2h0.07C29.953,2.039,38.031,10.11,38,19.994C37.969,29.922,29.894,38,20,38z"/>
</svg>
