<?xml version="1.0" encoding="utf-8"?>
<!-- Generator: Adobe Illustrator 17.1.0, SVG Export Plug-In . SVG Version: 6.00 Build 0)  -->
<!DOCTYPE svg PUBLIC "-//W3C//DTD SVG 1.1//EN" "http://www.w3.org/Graphics/SVG/1.1/DTD/svg11.dtd">
<svg version="1.1" id="Layer_1" xmlns="http://www.w3.org/2000/svg" xmlns:xlink="http://www.w3.org/1999/xlink" x="0px" y="0px"
	 viewBox="0 0 40 40" enable-background="new 0 0 40 40" xml:space="preserve">
<path id="Play" fill="none" d="M27.488,19.126l-12-6.708c-0.31-0.168-0.686-0.168-0.994,0.012C14.188,12.61,14,12.938,14,13.292
	v13.414c0,0.356,0.188,0.684,0.494,0.864c0.156,0.092,0.332,0.136,0.506,0.136c0.168,0,0.336-0.042,0.488-0.126l12-6.708
	C27.804,20.696,28,20.362,28,20S27.804,19.304,27.488,19.126z M16,25.002V14.998L24.95,20L16,25.002z M20,0C8.954,0,0,8.954,0,20
	s8.954,20,20,20s20-8.954,20-20S31.046,0,20,0z M20,36c-8.822,0-16-7.178-16-16S11.178,4,20,4s16,7.178,16,16S28.822,36,20,36z"/>
</svg>
