<?xml version="1.0" encoding="utf-8"?>
<!-- Generator: Adobe Illustrator 17.1.0, SVG Export Plug-In . SVG Version: 6.00 Build 0)  -->
<!DOCTYPE svg PUBLIC "-//W3C//DTD SVG 1.1//EN" "http://www.w3.org/Graphics/SVG/1.1/DTD/svg11.dtd">
<svg version="1.1" id="Layer_1" xmlns="http://www.w3.org/2000/svg" xmlns:xlink="http://www.w3.org/1999/xlink" x="0px" y="0px"
	 viewBox="0 0 40 40" enable-background="new 0 0 40 40" xml:space="preserve">
<path id="Play" fill="none" d="M15.841,13.01c-0.103-0.064-0.233-0.066-0.337-0.007c-0.105,0.059-0.171,0.171-0.171,0.291v13.413
	c0,0.121,0.065,0.232,0.171,0.291c0.051,0.028,0.107,0.042,0.163,0.042c0.061,0,0.121-0.016,0.175-0.049l10.927-6.707
	c0.099-0.061,0.159-0.168,0.159-0.284c0-0.116-0.06-0.223-0.159-0.284L15.841,13.01z M16,26.111V13.889L25.956,20L16,26.111z M20,0
	c-0.026,0-0.052,0-0.078,0C8.913,0,0,8.981,0,20c0,11.046,8.954,20,20,20s19.965-8.955,20-20C40.035,8.973,31.125,0,20,0z
	 M20,38.667C9.707,38.667,1.333,30.293,1.333,20S9.672,1.333,19.922,1.333h0.073c10.328,0.04,18.704,8.412,18.672,18.663
	C38.634,30.291,30.26,38.667,20,38.667z"/>
</svg>
