<?xml version="1.0" encoding="UTF-8" standalone="no"?>
<svg width="255px" height="257px" viewBox="0 0 255 257" version="1.1" xmlns="http://www.w3.org/2000/svg" xmlns:xlink="http://www.w3.org/1999/xlink" xmlns:sketch="http://www.bohemiancoding.com/sketch/ns">
    <!-- Generator: Sketch 3.0 (7574) - http://www.bohemiancoding.com/sketch -->
    <title>Slice 1</title>
    <description>Created with Sketch.</description>
    <defs></defs>
    <g id="Page-1" stroke="none" stroke-width="1" fill="none" fill-rule="evenodd" sketch:type="MSPage">
        <g id="play-xl" sketch:type="MSLayerGroup" fill="#D8D8D8">
            <path d="M101.877913,83.7704201 C101.222902,83.3590967 100.396189,83.3462428 99.7348187,83.7254316 C99.0670891,84.1046203 98.6473734,84.8244362 98.6473734,85.5956676 L98.6473734,171.80005 C98.6473734,172.577709 99.0607298,173.291098 99.7348187,173.670286 C100.059144,173.85024 100.415267,173.940217 100.771389,173.940217 C101.159308,173.940217 101.540868,173.837387 101.884272,173.625298 L171.372661,130.519893 C172.002234,130.12785 172.383794,129.440169 172.383794,128.694646 C172.383794,127.949122 172.002234,127.261441 171.372661,126.869398 L101.877913,83.7704201 L101.877913,83.7704201 Z M102.633126,166.902174 L102.633126,88.4782609 L166.405165,127.690217 L102.633126,166.902174 L102.633126,166.902174 Z M127.543751,0 L127.04633,0 C56.8398727,0 0,57.7907826 0,128.695652 C0,199.774261 57.1013373,257.391304 127.543751,257.391304 C197.986165,257.391304 254.864301,199.767826 255.087502,128.695652 C255.310704,57.7393043 198.489963,0 127.543751,0 L127.543751,0 Z M128.042006,249.347826 C62.3844645,249.347826 8.96794304,195.448884 8.96794304,129.19837 C8.96794304,62.947855 62.1612046,9.04891304 127.544456,9.04891304 L128.010112,9.04891304 C193.890914,9.30637157 247.320193,63.1924406 247.11607,129.172624 C246.905567,195.436011 193.489046,249.347826 128.042006,249.347826 L128.042006,249.347826 Z" id="Play" sketch:type="MSShapeGroup"></path>
        </g>
    </g>
</svg>