<?xml version="1.0" encoding="utf-8"?>
<!-- Generator: Adobe Illustrator 17.1.0, SVG Export Plug-In . SVG Version: 6.00 Build 0)  -->
<!DOCTYPE svg PUBLIC "-//W3C//DTD SVG 1.1//EN" "http://www.w3.org/Graphics/SVG/1.1/DTD/svg11.dtd">
<svg version="1.1" id="Layer_1" xmlns="http://www.w3.org/2000/svg" xmlns:xlink="http://www.w3.org/1999/xlink" x="0px" y="0px"
	 viewBox="0 0 40 40" enable-background="new 0 0 40 40" xml:space="preserve">
<g id="Previous">
	<path fill="#FFFFFF" d="M34.916,8.222c-0.664-0.342-1.466-0.29-2.076,0.15L22,16.116V10c0-0.748-0.418-1.436-1.084-1.778
		s-1.466-0.288-2.078,0.152l-14,10C4.312,18.748,4,19.354,4,20s0.312,1.252,0.836,1.626l13.994,10
		C19.176,31.876,19.584,32,19.994,32c0.312,0,0.628-0.072,0.918-0.22C21.578,31.436,22,30.75,22,30v-6.116l10.834,7.742
		C33.178,31.876,33.586,32,33.996,32c0.312,0,0.626-0.072,0.914-0.22c0.666-0.344,1.084-1.03,1.084-1.78L36,10
		C36,9.252,35.582,8.564,34.916,8.222z M18,26l-8.56-6L18,14V26z M32,26l-8.56-6L32,14V26z"/>
</g>
</svg>
