<?xml version="1.0" encoding="utf-8"?>
<!-- Generator: Adobe Illustrator 17.1.0, SVG Export Plug-In . SVG Version: 6.00 Build 0)  -->
<!DOCTYPE svg PUBLIC "-//W3C//DTD SVG 1.1//EN" "http://www.w3.org/Graphics/SVG/1.1/DTD/svg11.dtd">
<svg version="1.1" id="Layer_1" xmlns="http://www.w3.org/2000/svg" xmlns:xlink="http://www.w3.org/1999/xlink" x="0px" y="0px"
	 viewBox="0 0 40 40" enable-background="new 0 0 40 40" xml:space="preserve">
<g id="Previous">
	<path fill="#FFFFFF" d="M35.47,9.117c-0.326-0.173-0.722-0.154-1.028,0.053L21,18.287V10c0-0.369-0.325-0.709-0.651-0.883
		c-0.326-0.173-0.721-0.154-1.028,0.053l-14.879,10C4.166,19.356,4,19.667,4,20s0.166,0.645,0.442,0.83l14.873,10
		c0.168,0.112,0.363,0.17,0.558,0.17c0.161,0,0.323-0.039,0.47-0.117C20.669,30.709,21,30.37,21,30v-8.287l13.436,9.117
		c0.168,0.112,0.363,0.17,0.558,0.17c0.161,0,0.323-0.039,0.47-0.117c0.326-0.174,0.53-0.513,0.53-0.883L36,10
		C36,9.631,35.796,9.291,35.47,9.117z M19,28L7,20l12-8V28z M34,28l-12-8l12-8V28z"/>
</g>
</svg>
