<?xml version="1.0" encoding="utf-8"?>
<!-- Generator: Adobe Illustrator 17.1.0, SVG Export Plug-In . SVG Version: 6.00 Build 0)  -->
<!DOCTYPE svg PUBLIC "-//W3C//DTD SVG 1.1//EN" "http://www.w3.org/Graphics/SVG/1.1/DTD/svg11.dtd">
<svg version="1.1" id="Layer_1" xmlns="http://www.w3.org/2000/svg" xmlns:xlink="http://www.w3.org/1999/xlink" x="0px" y="0px"
	 viewBox="0 0 40 40" enable-background="new 0 0 40 40" xml:space="preserve">
<path id="Reply" fill="none" d="M20.087,14H12.76l5.149-5.031c0.198-0.192,0.202-0.51,0.009-0.708
	c-0.193-0.195-0.509-0.202-0.707-0.008l-6.393,6.243l6.359,6.244c0.097,0.096,0.224,0.143,0.35,0.143
	c0.129,0,0.259-0.05,0.357-0.149c0.193-0.197,0.19-0.512-0.007-0.705L12.755,15h7.332C23.409,15,26,17.64,26,20.89v3.106
	c0,0.276,0.224,0.5,0.5,0.5s0.5-0.224,0.5-0.5V20.89C27,17.089,23.961,14,20.087,14z M20,0C8.972,0,0,7.851,0,17.5
	c0,3.592,1.241,7.033,3.594,9.983L0.529,39.744l12.886-5.735C15.562,34.667,17.775,35,20,35c11.028,0,20-7.851,20-17.5
	S31.028,0,20,0z M20,33c-2.143,0-4.274-0.34-6.336-1.01l-0.365-0.118l-9.833,4.376l2.316-9.264L5.45,26.593
	C3.193,23.921,2,20.776,2,17.5C2,8.953,10.075,2,20,2s18,6.953,18,15.5S29.925,33,20,33z"/>
</svg>
