<?xml version="1.0" encoding="utf-8"?>
<!-- Generator: Adobe Illustrator 17.1.0, SVG Export Plug-In . SVG Version: 6.00 Build 0)  -->
<!DOCTYPE svg PUBLIC "-//W3C//DTD SVG 1.1//EN" "http://www.w3.org/Graphics/SVG/1.1/DTD/svg11.dtd">
<svg version="1.1" id="Layer_1" xmlns="http://www.w3.org/2000/svg" xmlns:xlink="http://www.w3.org/1999/xlink" x="0px" y="0px"
	 viewBox="0 0 40 40" enable-background="new 0 0 40 40" xml:space="preserve">
<path id="Reply" fill="none" d="M20.468,14H13.56l4.138-3.974c0.406-0.374,0.434-1.09,0.06-1.498c-0.372-0.404-1.006-0.47-1.414-0.1
	l-6.826,6.254l6.792,6.266c0.192,0.178,0.436,0.26,0.678,0.26c0.268,0,0.538-0.11,0.734-0.322c0.376-0.406,0.35-0.872-0.056-1.246
	L13.55,16h6.92c3.046,0,5.53,1.912,5.53,4.68v2.924c0,0.552,0.448,1,1,1s1-0.448,1-1V20.68C28,16.81,24.618,14,20.468,14z M20-0.338
	c-11.028,0-20,7.864-20,17.53c0,3.542,1.194,6.924,3.462,9.84L0.018,40l14.33-6.004C16.202,34.476,18.1,34.72,20,34.72
	c11.028,0,20-7.864,20-17.53S31.028-0.338,20-0.338z M20,30.72c-1.758,0-3.516-0.254-5.226-0.756l-0.68-0.2L5.97,33.166l1.896-7.134
	L7.162,25.23C5.094,22.876,4,20.094,4,17.192c0-7.46,7.178-13.53,16-13.53s16,6.068,16,13.53S28.822,30.72,20,30.72z"/>
</svg>
