<?xml version="1.0" encoding="utf-8"?>
<!-- Generator: Adobe Illustrator 17.1.0, SVG Export Plug-In . SVG Version: 6.00 Build 0)  -->
<!DOCTYPE svg PUBLIC "-//W3C//DTD SVG 1.1//EN" "http://www.w3.org/Graphics/SVG/1.1/DTD/svg11.dtd">
<svg version="1.1" id="Layer_1" xmlns="http://www.w3.org/2000/svg" xmlns:xlink="http://www.w3.org/1999/xlink" x="0px" y="0px"
	 viewBox="0 0 40 40" enable-background="new 0 0 40 40" xml:space="preserve">
<g id="Search">
	<path fill="#FFFFFF" d="M39.707,38.293L27.971,26.557c2.487-2.82,4.016-6.509,4.029-10.554C32.028,7.213,24.853,0.034,15.94,0
		C7.151,0,0,7.178,0,16s7.178,16,16,16c4.044,0,7.736-1.53,10.558-4.028l11.735,11.735C38.488,39.902,38.744,40,39,40
		s0.512-0.098,0.707-0.293C40.098,39.316,40.098,38.684,39.707,38.293z M2,16C2,8.28,8.254,2,15.996,2
		C23.742,2.03,30.024,8.309,30,15.997c-0.012,3.85-1.581,7.341-4.104,9.875c-0.004,0.004-0.01,0.005-0.014,0.009
		c-0.005,0.005-0.007,0.013-0.012,0.018C23.335,28.432,19.844,30,16,30C8.28,30,2,23.72,2,16z"/>
</g>
</svg>
