<?xml version="1.0" encoding="utf-8"?>
<!-- Generator: Adobe Illustrator 17.1.0, SVG Export Plug-In . SVG Version: 6.00 Build 0)  -->
<!DOCTYPE svg PUBLIC "-//W3C//DTD SVG 1.1//EN" "http://www.w3.org/Graphics/SVG/1.1/DTD/svg11.dtd">
<svg version="1.1" id="Layer_1" xmlns="http://www.w3.org/2000/svg" xmlns:xlink="http://www.w3.org/1999/xlink" x="0px" y="0px"
	 viewBox="0 0 40 40" enable-background="new 0 0 40 40" xml:space="preserve">
<g id="Search">
	<path fill="#FFFFFF" d="M39.414,36.586l-9.088-9.088c2.282-2.892,3.662-6.532,3.674-10.492C34.03,7.666,26.406,0.038,16.944,0
		C7.6,0,0,7.626,0,17s7.626,17,17,17c3.962,0,7.604-1.38,10.5-3.672l9.086,9.086C36.976,39.804,37.488,40,38,40
		s1.024-0.196,1.414-0.586C40.196,38.632,40.196,37.368,39.414,36.586z M4,17C4,9.832,9.806,4,16.992,4
		C24.188,4.03,30.022,9.858,30,16.994c-0.01,3.576-1.466,6.818-3.81,9.172c-0.004,0.004-0.01,0.006-0.014,0.01
		c-0.006,0.006-0.006,0.012-0.012,0.018C23.81,28.544,20.57,30,17,30C9.832,30,4,24.168,4,17z"/>
</g>
</svg>
