<?xml version="1.0" encoding="utf-8"?>
<!-- Generator: Adobe Illustrator 17.1.0, SVG Export Plug-In . SVG Version: 6.00 Build 0)  -->
<!DOCTYPE svg PUBLIC "-//W3C//DTD SVG 1.1//EN" "http://www.w3.org/Graphics/SVG/1.1/DTD/svg11.dtd">
<svg version="1.1" id="Layer_1" xmlns="http://www.w3.org/2000/svg" xmlns:xlink="http://www.w3.org/1999/xlink" x="0px" y="0px"
	 viewBox="0 0 40 40" enable-background="new 0 0 40 40" xml:space="preserve">
<g id="Settings">
	<path fill="#FFFFFF" d="M20,0c-0.026,0-0.052,0-0.078,0C8.913,0,0,8.981,0,20c0,11.046,8.954,20,20,20s19.965-8.954,20-20
		C40.035,8.973,31.125,0,20,0z M29,5v10.548c-1.705,0.235-3.022,1.683-3.022,3.452s1.317,3.217,3.022,3.452V35h0.905
		c-1.774,1.18-3.769,2.043-5.905,2.533v-3.086c1.684-0.254,2.978-1.693,2.978-3.447S25.684,27.806,24,27.553V2.476
		C26.137,2.968,28.131,3.829,29.904,5H29z M16,19.548c-1.705,0.235-3.022,1.683-3.022,3.452s1.317,3.217,3.022,3.452v11.085
		c-2.174-0.496-4.203-1.375-6-2.58v-17.51c1.684-0.254,2.978-1.693,2.978-3.447S11.684,10.806,10,10.553v-5.53
		c1.798-1.205,3.826-2.085,6-2.575V19.548z M2,20C2,14.205,4.752,9.056,9,5.761v4.787C7.295,10.783,5.978,12.231,5.978,14
		S7.295,17.217,9,17.452v16.764C4.751,30.921,2,25.781,2,20z M17,37.729V26.447c1.684-0.254,2.978-1.693,2.978-3.447
		S18.684,19.806,17,19.553V2.261C17.953,2.103,18.925,2,19.922,2h0.07C21.019,2,22.02,2.113,23,2.281v25.267
		c-1.705,0.235-3.022,1.683-3.022,3.452c0,1.769,1.317,3.217,3.022,3.452v3.276C22.022,37.894,21.024,38,20,38
		S17.978,37.894,17,37.729z M30,34.942V22.447c1.684-0.254,2.978-1.693,2.978-3.447S31.684,15.806,30,15.553V5.058
		c4.837,3.237,8.02,8.727,8,14.935C37.98,26.214,34.803,31.706,30,34.942z"/>
</g>
</svg>
