<?xml version="1.0" encoding="utf-8"?>
<!-- Generator: Adobe Illustrator 17.1.0, SVG Export Plug-In . SVG Version: 6.00 Build 0)  -->
<!DOCTYPE svg PUBLIC "-//W3C//DTD SVG 1.1//EN" "http://www.w3.org/Graphics/SVG/1.1/DTD/svg11.dtd">
<svg version="1.1" id="Layer_1" xmlns="http://www.w3.org/2000/svg" xmlns:xlink="http://www.w3.org/1999/xlink" x="0px" y="0px"
	 viewBox="0 0 40 40" enable-background="new 0 0 40 40" xml:space="preserve">
<g id="Settings">
	<path fill="#FFFFFF" d="M20,0C8.954,0,0,8.954,0,20s8.954,20,20,20s20-8.954,20-20S31.046,0,20,0z M28,13.142
		c-1.722,0.446-3,1.996-3,3.858s1.278,3.412,3,3.858v12.976c-1.238,0.718-2.58,1.27-4,1.638V4.526c1.42,0.368,2.762,0.92,4,1.638
		V13.142z M16,23.142c-1.722,0.446-3,1.996-3,3.858s1.278,3.412,3,3.858v4.614c-1.42-0.368-2.762-0.92-4-1.638V18.858
		c1.722-0.446,3-1.996,3-3.858s-1.278-3.412-3-3.858V6.164c1.238-0.718,2.58-1.27,4-1.638V23.142z M4,20c0-5.04,2.348-9.536,6-12.47
		v3.612C8.278,11.588,7,13.138,7,15s1.278,3.412,3,3.858V32.47C6.348,29.536,4,25.04,4,20z M18,35.862V30.86
		c1.722-0.446,3-1.996,3-3.858s-1.278-3.412-3-3.858V4.138C18.656,4.056,19.322,4,20,4s1.344,0.056,2,0.138V35.86
		C21.344,35.944,20.678,36,20,36S18.656,35.944,18,35.862z M30,32.47V20.858c1.722-0.446,3-1.996,3-3.858s-1.278-3.412-3-3.858V7.53
		c3.652,2.934,6,7.43,6,12.47S33.652,29.536,30,32.47z"/>
</g>
</svg>
