<?xml version="1.0" encoding="utf-8"?>
<!-- Generator: Adobe Illustrator 17.1.0, SVG Export Plug-In . SVG Version: 6.00 Build 0)  -->
<!DOCTYPE svg PUBLIC "-//W3C//DTD SVG 1.1//EN" "http://www.w3.org/Graphics/SVG/1.1/DTD/svg11.dtd">
<svg version="1.1" id="Layer_1" xmlns="http://www.w3.org/2000/svg" xmlns:xlink="http://www.w3.org/1999/xlink" x="0px" y="0px"
	 viewBox="0 0 40 40" enable-background="new 0 0 40 40" xml:space="preserve">
<path id="Share" fill="none" d="M29,39H1V11h19v-1H0.5C0.224,10,0,10.224,0,10.5v29C0,39.776,0.224,40,0.5,40h29
	c0.276,0,0.5-0.224,0.5-0.5V20h-1V39z M20,2c-0.552,0-1,0.447-1,1s0.448,1,1,1h14.586L19.293,19.293
	c-0.391,0.391-0.391,1.023,0,1.414C19.488,20.902,19.744,21,20,21s0.512-0.098,0.707-0.293L36,5.414V20c0,0.553,0.448,1,1,1
	s1-0.447,1-1V2H20z"/>
</svg>
