<?xml version="1.0" encoding="utf-8"?>
<!-- Generator: Adobe Illustrator 17.1.0, SVG Export Plug-In . SVG Version: 6.00 Build 0)  -->
<!DOCTYPE svg PUBLIC "-//W3C//DTD SVG 1.1//EN" "http://www.w3.org/Graphics/SVG/1.1/DTD/svg11.dtd">
<svg version="1.1" id="Layer_1" xmlns="http://www.w3.org/2000/svg" xmlns:xlink="http://www.w3.org/1999/xlink" x="0px" y="0px"
	 viewBox="0 0 40 40" enable-background="new 0 0 40 40" xml:space="preserve">
<path fill="none" d="M28,38H2V12h18v-2H1c-0.552,0-1,0.448-1,1v28c0,0.552,0.448,1,1,1h28c0.552,0,1-0.448,1-1V20h-2V38z M20,2
	c-1.104,0-2,0.894-2,2s0.896,2,2,2h11.172L18.586,18.586c-0.782,0.782-0.782,2.046,0,2.828C18.976,21.804,19.488,22,20,22
	s1.024-0.196,1.414-0.586L34,8.828V20c0,1.106,0.896,2,2,2s2-0.894,2-2V2H20z"/>
</svg>
