<?xml version="1.0" encoding="utf-8"?>
<!-- Generator: Adobe Illustrator 17.1.0, SVG Export Plug-In . SVG Version: 6.00 Build 0)  -->
<!DOCTYPE svg PUBLIC "-//W3C//DTD SVG 1.1//EN" "http://www.w3.org/Graphics/SVG/1.1/DTD/svg11.dtd">
<svg version="1.1" id="Layer_1" xmlns="http://www.w3.org/2000/svg" xmlns:xlink="http://www.w3.org/1999/xlink" x="0px" y="0px"
	 viewBox="0 0 40 40" enable-background="new 0 0 40 40" xml:space="preserve">
<g id="Trash">
	<path fill="#FFFFFF" d="M36,8h-3.5H26V1c0-0.552-0.448-1-1-1H15c-0.552,0-1,0.448-1,1v7H7.5H4c-1.104,0-2,0.894-2,2s0.896,2,2,2
		h1.738l3.348,26.254C9.214,39.252,10.064,40,11.07,40h17.86c1.006,0,1.856-0.748,1.984-1.746L34.262,12H36c1.104,0,2-0.894,2-2
		S37.104,8,36,8z M16,2h8v6h-8V2z M27.168,36H12.832l-3.06-24H30.23L27.168,36z"/>
</g>
</svg>
