<?xml version="1.0" encoding="utf-8"?>
<!-- Generator: Adobe Illustrator 17.1.0, SVG Export Plug-In . SVG Version: 6.00 Build 0)  -->
<!DOCTYPE svg PUBLIC "-//W3C//DTD SVG 1.1//EN" "http://www.w3.org/Graphics/SVG/1.1/DTD/svg11.dtd">
<svg version="1.1" id="Layer_1" xmlns="http://www.w3.org/2000/svg" xmlns:xlink="http://www.w3.org/1999/xlink" x="0px" y="0px"
	 viewBox="0 0 40 40" enable-background="new 0 0 40 40" xml:space="preserve">
<g id="Trash">
	<path fill="#FFFFFF" d="M36,8h-3.5H27V0.5C27,0.224,26.776,0,26.5,0h-13C13.224,0,13,0.224,13,0.5V8H7.5H4C3.448,8,3,8.447,3,9
		s0.448,1,1,1h2.612l3.466,29.118C10.138,39.621,10.564,40,11.071,40H28.93c0.506,0,0.933-0.379,0.993-0.882L33.388,10H36
		c0.552,0,1-0.447,1-1S36.552,8,36,8z M14,1h12v7H14V1z M28.042,38H11.959L8.626,10h22.748L28.042,38z"/>
</g>
</svg>
