<?xml version="1.0" encoding="UTF-8" standalone="no"?>
<svg width="463px" height="159px" viewBox="0 0 463 159" version="1.1" xmlns="http://www.w3.org/2000/svg" xmlns:xlink="http://www.w3.org/1999/xlink" xmlns:sketch="http://www.bohemiancoding.com/sketch/ns">
    <!-- Generator: Sketch 3.0 (7574) - http://www.bohemiancoding.com/sketch -->
    <title>Musio PRINT Logo Master Mono Reversed</title>
    <description>Created with Sketch.</description>
    <defs>
        <path id="path-1" d="M0,-0.216368768 L650,-0.216368768 L650,459.783631 L0,459.783631 L0,-0.216368768 Z"></path>
    </defs>
    <g id="Welcome" stroke="none" stroke-width="1" fill="none" fill-rule="evenodd" sketch:type="MSPage">
        <g sketch:type="MSArtboardGroup" transform="translate(-104.000000, -196.000000)" id="Musio-PRINT-Logo-Master-Mono-Reversed">
            <g sketch:type="MSLayerGroup" transform="translate(0.000000, 60.000000)">
                <path d="M122.332781,291.772047 L104.366657,291.772047 L104.366657,217.733745 L125.32765,217.733745 L144.957589,257.583463 L164.365944,217.733745 L185.437343,217.733745 L185.437343,291.772047 L167.47122,291.772047 L167.47122,249.480453 L144.957589,294.769527 L122.332781,249.480453 L122.332781,291.772047 Z" id="Fill-1" fill="#FFFFFF" sketch:type="MSShapeGroup"></path>
                <g id="Group-10">
                    <path d="M241.217564,240.378437 L241.217564,272.679976 C241.217564,280.561208 239.44257,285.000632 235.118192,288.552943 C230.792271,291.993979 224.914484,293.770521 217.594466,293.770521 C209.941685,293.770521 203.399144,291.772201 199.294807,288.109387 C195.413599,284.778854 193.639377,279.783826 193.639377,272.679976 L193.639377,240.378437 L210.496805,240.378437 L210.496805,271.459038 C210.496805,276.786346 213.047732,279.783826 217.594466,279.783826 C221.809209,279.783826 224.360136,277.120172 224.360136,272.679976 L224.360136,240.378437 L241.217564,240.378437 Z" id="Fill-2" fill="#FFFFFF" sketch:type="MSShapeGroup"></path>
                    <path d="M272.046182,255.585066 L272.046182,254.586679 C272.046182,252.255305 269.939196,250.479536 267.166684,250.479536 C264.837342,250.479536 263.174298,251.922252 263.174298,253.920572 C263.174298,256.029395 264.726936,257.250333 269.052085,258.471271 C283.469764,262.578414 288.682025,267.351663 288.682025,276.342558 C288.682025,286.776942 280.363717,293.77029 267.832211,293.77029 C255.299932,293.77029 247.424794,287.220498 247.092803,276.453833 L263.06312,276.453833 C263.728646,280.227923 264.948521,281.670639 267.832211,281.670639 C270.050375,281.670639 271.713419,280.116648 271.713419,278.007825 C271.713419,275.676451 270.050375,274.455513 263.174298,272.236188 C251.9723,268.683104 247.092803,263.466298 247.092803,255.363288 C247.092803,245.151455 255.410339,238.379885 267.832211,238.379885 C280.031726,238.379885 287.572557,244.817629 287.683735,255.585066 L272.046182,255.585066 Z" id="Fill-4" fill="#FFFFFF" sketch:type="MSShapeGroup"></path>
                    <mask id="mask-2" sketch:name="Clip 7" fill="white">
                        <use xlink:href="#path-1"></use>
                    </mask>
                    <g id="Clip-7"></g>
                    <path d="M312.413676,291.771738 L295.555476,291.771738 L295.555476,240.377973 L312.413676,240.377973 L312.413676,291.771738 Z" id="Fill-6" fill="#FFFFFF" sketch:type="MSShapeGroup" mask="url(#mask-2)"></path>
                    <path d="M334.25985,266.130339 C334.25985,273.67929 339.139347,278.896096 346.23778,278.896096 C353.225035,278.896096 358.104533,273.789793 358.104533,266.464165 C358.104533,258.249879 353.668205,253.365354 346.348187,253.365354 C339.028941,253.365354 334.25985,258.471657 334.25985,266.130339 M375.072367,266.685943 C375.072367,281.892803 362.319276,293.770676 346.126602,293.770676 C329.490759,293.770676 317.402422,282.225857 317.402422,266.130339 C317.402422,249.813815 329.269174,238.380271 346.348187,238.380271 C362.98403,238.380271 375.072367,250.257371 375.072367,266.685943" id="Fill-8" fill="#FFFFFF" sketch:type="MSShapeGroup" mask="url(#mask-2)"></path>
                    <path d="M514.915749,262.665966 C512.94156,262.665966 511.004431,262.507553 509.112081,262.209273 C514.596111,253.672752 518.230256,243.838792 519.454762,233.280769 C522.119184,231.712868 523.916569,228.820481 523.916569,225.510039 C523.916569,222.991661 522.877359,220.71438 521.208911,219.076932 C523.684175,213.379479 529.357363,209.382066 535.950088,209.382066 C542.570609,209.382066 548.266187,213.411934 550.724465,219.148024 C549.099253,220.780063 548.093243,223.028753 548.093243,225.510039 C548.093243,228.315878 549.381059,230.825756 551.396168,232.480977 C548.114861,249.648293 533.010037,262.665966 514.915749,262.665966 M499.074368,259.107472 C488.523228,254.107035 480.685921,244.277711 478.429926,232.486386 C480.449667,230.831938 481.741344,228.319742 481.741344,225.510039 C481.741344,221.85418 479.552519,218.706787 476.420993,217.292662 C472.983727,206.876824 463.173004,199.336373 451.628978,199.336373 C449.507323,199.336373 447.44589,199.597561 445.469384,200.078209 C452.24818,192.874674 461.854304,188.364158 472.498094,188.364158 C490.649515,188.364158 505.791398,201.464514 509.007851,218.712196 C507.107781,220.366644 505.899488,222.796929 505.899488,225.510039 C505.899488,228.412471 507.283042,230.992669 509.418594,232.642481 C508.190999,242.418485 504.532148,251.446472 499.074368,259.107472 M451.643647,283.641372 C437.225968,283.641372 424.026619,278.358883 413.846073,269.64154 C419.044436,271.618996 424.675159,272.711658 430.559123,272.711658 C448.98849,272.711658 464.974248,262.075588 472.737436,246.619903 C477.063357,255.232153 483.936346,262.350685 492.371236,266.961658 C481.862559,277.270085 467.4858,283.641372 451.643647,283.641372 M394.080248,232.49025 C396.102306,230.835802 397.395527,228.32206 397.395527,225.510039 C397.395527,222.109958 395.504722,219.144933 392.720629,217.609488 C389.962786,201.467605 378.997814,188.095243 364.285204,181.968143 C378.475121,160.47886 402.823968,146.272705 430.429415,146.272705 C460.100928,146.272705 486.00936,162.683504 499.584708,186.909851 C491.911853,181.505268 482.572866,178.318465 472.498094,178.318465 C449.125919,178.318465 429.679733,195.417007 425.962204,217.769446 C423.325577,219.344302 421.550583,222.219688 421.550583,225.510039 C421.550583,230.481111 425.591609,234.526435 430.559123,234.526435 C435.526636,234.526435 439.567663,230.481111 439.567663,225.510039 C439.567663,223.000934 438.536947,220.730607 436.879307,219.094705 C439.350711,213.387979 445.029303,209.382066 451.628978,209.382066 C458.237145,209.382066 463.922686,213.397252 466.388685,219.116342 C464.744171,220.750699 463.724263,223.012525 463.724263,225.510039 C463.724263,228.320515 465.016712,230.834256 467.037998,232.488704 C463.753602,249.652157 448.650322,262.665966 430.559123,262.665966 C412.467923,262.665966 397.364644,249.65293 394.080248,232.49025 M343.188326,206.620273 C338.494898,202.114393 332.133794,199.336373 325.132642,199.336373 C323.128342,199.336373 321.179632,199.571287 319.303496,200.000934 C326.076887,192.868492 335.633598,188.408205 346.217938,188.408205 C347.221632,188.408205 348.213745,188.459206 349.198138,188.538026 C346.58004,194.267934 344.55335,200.321623 343.188326,206.620273 M560.732839,217.264843 C557.28708,206.863688 547.483305,199.336373 535.950088,199.336373 C528.85706,199.336373 522.41952,202.185486 517.709879,206.796459 C509.066529,166.516322 473.218437,136.227012 430.429415,136.227012 C398.219328,136.227012 369.941406,153.391238 354.23977,179.058756 C351.630165,178.60979 348.953391,178.362512 346.217938,178.362512 C323.00095,178.362512 303.665942,195.236957 299.768521,217.372255 C296.844683,218.814198 295.000974,221.749086 295.000974,225.393354 C295.000974,230.61016 298.771775,234.384249 303.984036,234.384249 C309.08589,234.384249 312.96787,230.61016 312.96787,225.50463 C312.96787,222.827839 312.042927,220.545149 310.463267,218.933974 C312.967098,213.31225 318.595505,209.382066 325.132642,209.382066 C331.740809,209.382066 337.407048,213.404979 339.867643,219.125615 C338.229305,220.759199 337.213258,223.017934 337.213258,225.510039 C337.213258,230.481111 341.254285,234.526435 346.221799,234.526435 C351.189312,234.526435 355.230339,230.481111 355.230339,225.510039 C355.230339,222.531877 353.77421,219.893724 351.543693,218.25164 C352.442386,208.474862 355.113756,199.205006 359.245887,190.773579 C371.18753,195.264776 380.224637,205.740116 382.692181,218.531373 C380.671667,220.185822 379.378446,222.69879 379.378446,225.510039 C379.378446,228.81739 381.172742,231.706686 383.832532,233.275359 C387.767784,267.235983 416.674174,293.687065 451.643647,293.687065 C471.770029,293.687065 489.887479,284.923357 502.393507,271.010845 C506.384349,272.111235 510.580563,272.711658 514.915749,272.711658 C538.233106,272.711658 557.641461,255.692709 561.423844,233.417545 C564.214113,231.882872 566.110323,228.914756 566.110323,225.510039 C566.110323,221.830997 563.895248,218.665831 560.732839,217.264843" id="Fill-9" fill="#FFFFFF" sketch:type="MSShapeGroup" mask="url(#mask-2)"></path>
                </g>
            </g>
        </g>
    </g>
</svg>